<?xml version="1.0" standalone="no"?>
<!DOCTYPE svg PUBLIC "-//W3C//DTD SVG 20010904//EN"
 "http://www.w3.org/TR/2001/REC-SVG-20010904/DTD/svg10.dtd">
<svg version="1.0" xmlns="http://www.w3.org/2000/svg"
 width="816.000000pt" height="1056.000000pt" viewBox="0 0 816.000000 1056.000000"
 preserveAspectRatio="xMidYMid meet">

<g transform="translate(0.000000,1056.000000) scale(0.100000,-0.100000)"
fill="#000000" stroke="none">
<path d="M2470 10546 c0 -7 14 -44 31 -82 68 -151 81 -180 96 -211 13 -29 20
-33 53 -33 27 0 48 -8 72 -27 52 -44 57 -54 58 -119 0 -47 -7 -74 -30 -121
-16 -34 -41 -90 -56 -125 -14 -35 -34 -81 -44 -103 -46 -103 -156 -403 -180
-490 -5 -16 -17 -61 -28 -100 -11 -38 -28 -115 -37 -170 -9 -55 -18 -102 -21
-106 -13 -21 -353 -113 -549 -148 -262 -47 -448 -62 -769 -62 -281 0 -386 7
-535 33 -49 8 -65 8 -71 -2 -25 -40 -36 -3364 -12 -3580 33 -294 73 -534 133
-790 24 -107 31 -131 105 -375 32 -104 96 -281 130 -362 8 -17 14 -34 14 -37
0 -3 14 -35 30 -71 17 -36 30 -68 30 -71 0 -15 174 -362 235 -469 37 -66 76
-135 87 -153 30 -54 129 -208 212 -329 42 -62 76 -117 76 -123 0 -5 -7 -10
-16 -10 -23 0 -324 73 -419 101 -135 41 -259 69 -267 61 -5 -5 -3 -26 7 -53
20 -52 44 -116 55 -144 5 -11 20 -54 35 -95 15 -41 30 -84 35 -95 34 -87 60
-164 60 -182 0 -19 -61 -143 -176 -361 -19 -35 -34 -72 -34 -82 0 -13 21 -25
88 -47 77 -27 123 -41 312 -97 59 -18 319 -80 395 -96 93 -18 149 -32 157 -39
6 -5 14 -132 17 -282 1 -21 7 -28 29 -32 15 -2 81 -14 147 -26 66 -11 145 -25
175 -31 30 -5 109 -16 175 -25 66 -9 149 -20 185 -25 36 -5 94 -12 130 -15
437 -38 470 -43 508 -72 166 -130 417 -308 472 -336 8 -4 51 -30 95 -57 44
-28 139 -80 210 -116 133 -68 180 -80 226 -57 13 6 42 19 64 28 193 83 494
274 743 472 59 47 116 88 127 92 11 5 81 13 155 20 296 25 575 58 770 91 206
35 261 45 305 55 l50 12 3 152 3 151 27 5 c15 3 43 10 62 15 19 5 62 14 95 20
110 21 187 39 315 75 25 7 63 17 85 23 128 35 394 125 398 135 2 7 -20 57 -48
112 -155 298 -167 325 -162 347 2 13 19 61 36 108 18 47 43 119 57 160 14 41
32 89 39 105 33 74 64 180 56 188 -4 4 -49 -3 -102 -17 -240 -66 -562 -146
-586 -146 -23 0 -14 30 25 83 57 76 282 430 282 441 0 3 21 40 46 83 77 129
237 463 305 636 22 56 44 111 49 122 87 197 237 749 276 1015 2 19 9 58 14 85
5 28 16 109 24 180 8 72 20 175 26 229 26 220 6 3471 -21 3500 -5 6 -29 5 -61
-2 -112 -24 -258 -32 -554 -32 -298 0 -375 5 -594 36 -226 33 -534 101 -645
144 -71 27 -75 30 -75 55 0 15 -4 45 -10 68 -5 23 -19 85 -30 137 -29 129
-118 395 -190 565 -5 11 -27 64 -50 118 -22 54 -56 132 -75 173 -27 59 -35 88
-35 134 0 52 3 61 33 90 37 37 66 50 108 50 27 0 33 6 64 75 19 41 35 77 35
79 0 3 18 44 40 91 22 47 40 88 40 91 0 2 -709 4 -1575 4 -1322 0 -1575 -2
-1575 -14z m2948 -133 c5 -34 -26 -72 -67 -83 -22 -6 -55 -29 -86 -60 l-49
-50 -1176 0 -1176 0 -49 50 c-30 31 -65 55 -89 62 -27 9 -42 21 -53 44 -34 70
-153 64 1369 62 l1373 -3 3 -22z m-225 -465 c9 -7 36 -56 61 -109 43 -94 182
-438 205 -509 35 -111 44 -140 58 -190 8 -30 21 -80 29 -110 25 -97 44 -357
44 -600 0 -238 22 -627 39 -710 90 -427 188 -711 378 -1098 38 -77 44 -95 32
-103 -20 -13 -3996 -12 -4004 1 -3 6 21 65 53 133 125 257 186 409 266 667 47
154 58 199 91 375 28 149 35 261 44 695 11 478 19 555 78 760 32 109 79 252
103 310 10 25 35 88 55 140 61 154 137 324 153 343 14 16 82 17 1157 17 897 0
1145 -3 1158 -12z m-2821 -1583 c-3 -405 -16 -565 -63 -765 -6 -25 -15 -65
-21 -90 -14 -64 -87 -299 -102 -335 -8 -16 -17 -41 -21 -55 -28 -97 -238 -552
-273 -592 -14 -17 -48 -18 -444 -18 -405 0 -428 -1 -428 -18 0 -10 4 -22 8
-28 5 -5 32 -67 62 -139 29 -71 57 -134 61 -139 5 -6 9 -17 9 -26 0 -25 24
-43 143 -103 59 -31 138 -77 175 -103 83 -59 236 -213 314 -317 l58 -79 -2
-1726 c-2 -1216 -6 -1726 -14 -1729 -19 -6 -322 407 -455 622 -128 205 -269
467 -341 630 -17 39 -41 93 -53 120 -13 28 -32 74 -44 103 -12 28 -30 73 -40
100 -136 336 -257 817 -310 1227 -49 383 -54 586 -41 1875 6 635 12 1286 13
1445 2 160 7 298 11 309 8 16 17 17 65 12 201 -20 435 -26 614 -16 263 15 458
35 582 60 28 6 75 16 105 22 137 27 388 92 398 103 3 3 13 4 22 3 13 -3 15
-44 12 -353z m3453 325 c228 -69 493 -118 820 -151 145 -15 600 -14 737 2 83
10 111 10 120 1 18 -18 26 -657 29 -2067 2 -1185 1 -1202 -21 -1385 -32 -271
-37 -306 -55 -405 -30 -160 -44 -226 -75 -355 -5 -19 -14 -55 -19 -80 -5 -25
-19 -72 -29 -105 -11 -33 -31 -100 -46 -150 -87 -288 -294 -762 -451 -1035
-21 -36 -46 -80 -56 -98 -45 -78 -184 -295 -246 -384 -195 -278 -273 -375
-291 -364 -9 5 -12 430 -12 1712 l0 1705 42 62 c141 210 315 365 538 478 47
24 89 50 95 59 5 8 34 71 63 140 29 69 61 144 72 167 37 79 69 73 -403 73
-323 0 -427 3 -439 13 -34 26 -165 297 -255 527 -109 277 -168 494 -213 780
-11 70 -32 866 -23 883 6 10 8 10 118 -23z m1055 -2314 c0 -19 -40 -108 -58
-128 -14 -17 -159 -18 -2782 -18 -2623 0 -2768 1 -2781 18 -23 27 -49 90 -49
117 l0 25 2835 0 c2397 0 2835 -2 2835 -14z m-1145 -1601 l0 -640 -69 0 -69 0
-13 55 c-10 41 -13 183 -14 547 0 283 -4 494 -9 497 -15 9 -3033 8 -3042 -1
-4 -4 -9 -247 -11 -539 -2 -438 -5 -534 -17 -548 -11 -13 -28 -16 -80 -14
l-66 3 -7 70 c-11 110 -8 1176 3 1197 9 17 81 18 1702 16 l1692 -3 0 -640z
m-2645 48 l33 -6 -7 -135 c-4 -74 -11 -143 -17 -153 -13 -26 -85 -27 -93 -1
-13 42 -26 153 -26 219 0 60 3 72 18 76 27 7 57 7 92 0z m1019 -7 c13 -15 -4
-258 -20 -288 -7 -13 -22 -18 -48 -18 -37 0 -39 1 -50 45 -6 25 -14 95 -18
154 -7 123 -10 118 78 120 28 1 51 -4 58 -13z m985 8 c19 -7 20 -48 5 -182
-14 -120 -20 -132 -64 -132 -23 0 -37 6 -43 18 -5 9 -15 75 -22 146 -12 122
-12 130 5 143 19 13 91 18 119 7z m-2147 -231 c7 -66 -2 -100 -29 -109 -98
-31 -199 -179 -210 -309 l-3 -30 -73 -3 c-87 -3 -91 1 -72 97 13 65 18 82 48
151 47 110 174 232 277 267 40 14 54 0 62 -64z m311 50 c85 -41 190 -150 234
-243 20 -41 40 -86 46 -100 9 -24 10 -24 17 -5 59 162 158 284 277 343 37 17
71 32 77 32 18 0 31 -47 31 -111 l0 -59 -44 -21 c-88 -41 -159 -140 -186 -259
-7 -30 -14 -61 -16 -67 -5 -18 -275 -18 -292 -1 -7 7 -12 27 -12 46 0 42 -57
166 -98 213 -17 19 -56 47 -86 62 l-56 28 0 53 c0 64 16 116 37 116 8 0 40
-12 71 -27z m998 -9 c114 -56 203 -160 254 -296 12 -32 24 -58 28 -58 4 0 15
26 25 58 40 127 165 264 285 313 51 21 56 21 67 6 7 -10 16 -45 19 -78 8 -69
1 -82 -53 -105 -80 -34 -149 -130 -178 -249 l-19 -80 -140 -3 c-152 -3 -164 1
-164 58 0 35 -34 125 -65 172 -24 36 -92 93 -125 106 -35 13 -50 36 -50 79 0
43 22 113 36 113 4 0 40 -16 80 -36z m978 6 c160 -77 280 -254 288 -425 l3
-70 -70 0 -69 0 -12 55 c-32 144 -89 227 -194 282 l-45 24 4 64 c3 61 14 100
27 100 4 0 34 -13 68 -30z m-2059 -204 c64 -30 107 -76 142 -151 l28 -60 3
-885 c1 -487 -2 -891 -7 -898 -6 -11 -66 -14 -291 -13 -156 0 -287 4 -292 9
-5 5 -7 406 -6 893 3 797 5 888 20 925 57 142 141 203 283 203 53 1 82 -5 120
-23z m992 0 c58 -28 82 -48 118 -106 56 -88 55 -81 56 -1019 0 -534 -4 -868
-9 -873 -15 -15 -574 -10 -584 5 -5 7 -7 406 -5 887 3 982 -2 919 78 1027 53
72 118 102 219 103 59 0 86 -5 127 -24z m977 7 c53 -19 116 -74 141 -123 9
-17 25 -65 36 -107 18 -73 19 -117 19 -914 0 -460 -3 -844 -6 -853 -5 -14 -41
-16 -295 -16 -275 0 -289 1 -299 19 -7 14 -9 298 -7 878 2 799 4 862 21 913
33 100 101 176 182 205 54 20 150 18 208 -2z m-2462 -364 c15 -8 18 -23 18
-92 0 -51 -5 -88 -12 -95 -17 -17 -319 -17 -336 0 -16 16 -16 170 0 186 14 14
303 15 330 1z m978 2 c24 -6 25 -12 30 -90 7 -111 7 -111 -146 -111 -80 0
-124 4 -132 12 -7 7 -12 44 -12 95 0 77 2 84 23 93 26 10 200 11 237 1z m2075
-12 c3 -13 5 -60 3 -104 l-3 -80 -162 -3 c-128 -2 -164 0 -175 12 -13 13 -15
38 -9 154 1 13 10 26 21 30 11 4 87 9 169 11 l150 3 6 -23z m-1057 -1 c15 -15
16 -142 2 -169 -10 -17 -22 -19 -140 -19 -147 0 -133 -10 -145 102 -10 95 -7
98 143 98 86 0 132 -4 140 -12z m-2179 -242 c8 -10 10 -276 9 -987 l-3 -974
-74 1 c-60 0 -76 4 -87 19 -19 26 -21 1924 -2 1943 17 17 142 16 157 -2z
m3236 -971 l0 -980 -64 -7 c-113 -13 -101 -128 -101 982 0 830 2 970 14 977 8
4 45 8 83 8 l68 -1 0 -979z m-4623 -565 c62 -17 163 -42 223 -56 61 -14 136
-32 168 -40 32 -8 68 -14 80 -14 29 -1 41 -11 111 -98 l59 -73 -2 -340 c-1
-188 -5 -348 -8 -356 -9 -22 -49 -15 -358 61 -212 53 -432 119 -448 135 -9 9
11 56 83 196 103 201 101 189 60 280 -5 11 -18 45 -29 75 -10 30 -33 93 -50
140 -35 95 -38 120 -16 120 8 0 65 -14 127 -30z m5998 12 c0 -18 -24 -92 -76
-227 -14 -38 -35 -97 -46 -130 l-20 -60 55 -105 c145 -276 140 -263 106 -280
-31 -17 -304 -97 -409 -120 -19 -5 -73 -18 -120 -29 -47 -12 -103 -26 -125
-32 -22 -5 -65 -11 -95 -12 l-55 -2 -3 349 -2 348 56 72 c68 85 92 105 121
106 13 0 42 5 65 10 24 6 111 26 193 46 83 19 173 41 200 49 28 7 66 18 85 23
54 15 70 14 70 -6z m-5060 -496 c63 -9 149 -21 190 -26 41 -6 113 -15 160 -21
163 -21 463 -47 845 -72 249 -16 1283 -16 1550 0 309 19 492 33 580 43 44 5
148 16 230 25 83 9 184 20 225 26 134 19 330 49 342 54 7 3 19 1 27 -4 12 -8
14 -49 13 -238 -1 -125 -2 -317 -2 -426 0 -195 0 -198 -22 -206 -24 -10 -148
-32 -283 -51 -44 -6 -106 -16 -137 -21 -51 -9 -157 -21 -298 -35 -25 -2 -81
-9 -125 -14 -265 -34 -584 -49 -1180 -56 -511 -6 -812 1 -1100 26 -328 28
-467 41 -525 50 -36 5 -126 16 -200 25 -74 9 -155 20 -180 25 -25 5 -100 17
-167 27 -116 17 -123 19 -132 43 -8 25 -5 822 4 847 3 8 14 9 37 3 18 -4 85
-15 148 -24z m1835 -1129 c204 -1 489 0 635 3 201 4 265 2 265 -7 0 -6 -34
-37 -75 -69 -80 -60 -306 -214 -315 -214 -3 0 -24 -12 -48 -27 -81 -52 -272
-143 -300 -143 -64 0 -503 258 -697 409 -25 19 -47 36 -49 37 -1 2 0 8 4 14 5
8 38 9 108 5 56 -3 269 -7 472 -8z"/>
<path d="M3197 9713 c-2 -5 -10 -28 -17 -51 -9 -27 -26 -53 -46 -69 -28 -21
-42 -24 -98 -22 -37 1 -68 0 -70 -2 -12 -14 -113 -254 -152 -361 -99 -280
-109 -350 -123 -893 -11 -427 -27 -550 -110 -870 -44 -168 -95 -317 -172 -510
-45 -110 -83 -210 -86 -222 l-5 -23 1721 0 c1478 0 1721 2 1721 14 0 13 -12
44 -55 141 -7 16 -25 62 -40 100 -15 39 -31 79 -36 90 -12 28 -73 218 -94 290
-9 33 -21 71 -26 85 -13 41 -57 229 -72 315 -30 162 -37 247 -47 570 -13 431
-19 552 -30 595 -5 19 -16 64 -25 100 -33 131 -119 361 -196 527 l-29 62 -55
-6 c-32 -3 -66 -1 -82 6 -31 13 -70 64 -82 107 l-7 29 -842 3 c-462 1 -842 -1
-845 -5z m1038 -737 c300 -80 514 -300 589 -606 8 -36 17 -85 18 -110 l3 -45
85 -5 c78 -5 85 -7 82 -25 -4 -26 -70 -199 -94 -247 -18 -36 -21 -38 -67 -38
-58 0 -81 -7 -81 -25 0 -8 -11 -40 -24 -72 -14 -32 -63 -161 -111 -288 -48
-126 -94 -245 -102 -263 -23 -51 -13 -61 64 -64 l68 -3 0 -115 0 -115 -614 -3
c-388 -1 -618 1 -625 8 -12 12 -15 189 -4 213 7 13 21 17 68 17 32 0 61 4 64
9 5 8 -3 34 -33 106 -5 11 -20 49 -34 85 -31 81 -102 261 -157 403 l-43 107
-44 0 c-33 0 -50 6 -68 25 -14 13 -25 30 -25 37 0 7 -20 62 -45 122 -24 60
-42 113 -39 118 3 4 34 8 70 8 90 0 104 9 104 67 0 152 106 372 241 498 77 73
115 99 199 141 79 39 104 47 210 70 81 17 262 12 345 -10z"/>
<path d="M3980 8719 c-113 -9 -224 -58 -305 -136 -112 -106 -165 -230 -165
-381 0 -175 61 -309 189 -415 215 -177 516 -164 712 32 175 174 208 446 81
651 -113 183 -286 267 -512 249z"/>
<path d="M4782 1518 c-18 -11 -50 -27 -70 -33 -46 -16 -53 -52 -10 -47 66 7
64 13 94 -355 5 -74 -10 -97 -75 -108 -27 -4 -41 -12 -41 -22 0 -14 11 -15 77
-9 42 3 108 6 148 6 46 0 78 5 91 14 25 19 16 26 -38 33 -24 3 -48 10 -54 15
-13 10 -27 126 -43 350 -6 80 -14 153 -17 162 -8 21 -22 20 -62 -6z"/>
<path d="M3286 1518 c-11 -6 -42 -16 -70 -22 -61 -14 -70 -39 -16 -44 54 -5
63 -18 56 -82 -3 -30 -10 -117 -16 -193 -5 -75 -14 -146 -20 -157 -8 -14 -23
-20 -62 -22 -40 -2 -54 -7 -56 -20 -4 -20 23 -24 207 -34 101 -5 122 -3 119 8
-3 7 -13 15 -24 16 -10 2 -34 11 -53 20 l-34 16 7 90 c4 50 11 152 17 226 17
219 18 205 -11 207 -14 2 -34 -2 -44 -9z"/>
<path d="M3730 1503 c-59 -11 -120 -83 -120 -140 0 -29 28 -82 62 -119 l20
-22 -46 -48 c-60 -62 -74 -110 -51 -170 19 -51 52 -76 117 -92 130 -32 251 64
233 184 -4 32 -18 56 -51 93 l-46 51 36 41 c57 67 60 133 7 183 -38 37 -96 51
-161 39z m95 -68 c31 -30 33 -77 5 -122 -26 -44 -50 -42 -94 7 -41 46 -45 76
-15 114 27 34 71 35 104 1z m-10 -295 c36 -36 40 -46 40 -90 0 -94 -80 -133
-144 -69 -26 26 -31 38 -31 80 0 52 12 86 39 106 28 22 56 14 96 -27z"/>
<path d="M4150 1490 c-21 -5 -27 -15 -37 -65 -17 -86 -2 -100 48 -46 l37 41
91 0 c85 0 91 -1 91 -21 0 -11 -19 -57 -43 -102 -64 -122 -127 -275 -134 -324
-6 -46 7 -73 36 -73 33 0 43 19 57 101 15 84 21 108 56 208 26 75 54 133 88
188 17 26 30 60 30 75 l0 29 -147 -2 c-82 -1 -159 -5 -173 -9z"/>
</g>
</svg>
